# xmcd
# 
# Track frame offsets:
#     150
#     21913
#     42472
#     58605
#     76498
#     102620
#     117204
#     138552
#     152388
#     168321
#     190995
# 
# Disc length: 2819
# 
# Revision: 0
# Processed by: cddbd v1.5.2PL0 Copyright (c) Steve Scherf et al.
# Submitted via: fre:ac v1.0.17
# 
DISCID=920b010b
DTITLE=Olu Dara - In the World (From Natchez to New York)
DYEAR=0
DGENRE=blues
TTITLE0=Okra
TTITLE1=Rain Shower
TTITLE2=Natchez Shopping Blues
TTITLE3=Your Lips
TTITLE4=Harlem Country Girl
TTITLE5=Zora
TTITLE6=Young Mama
TTITLE7=Bubber (If Only)
TTITLE8=Father Blues
TTITLE9=Jungle Jay
TTITLE10=Kiane
EXTD=Atlantic 83077-2\n1998
EXTT0=
EXTT1=
EXTT2=
EXTT3=
EXTT4=
EXTT5=
EXTT6=
EXTT7=
EXTT8=
EXTT9=
EXTT10=
PLAYORDER=
